# xmcd CD database file
#
# Track frame offsets:
#	150
#	2253
#	9239
#	14719
#	24372
#	31902
#	36049
#	40906
#	46542
#	53793
#	63115
#	70288
#	80251
#	89788
#
# Disc length: 1316 seconds
#
# Revision: 0
# Processed by: cddbd v1.5.1PL0 Copyright (c) Steve Scherf et al.
# Submitted via: CDex 1.50beta9
#
DISCID=9a05220e
DTITLE=Barry Galbraith - Guitar Solos Volume 2
DYEAR=2003
DGENRE=Jazz
TTITLE0=Tuning Note
TTITLE1=I've Grown Accustomed To Her Face
TTITLE2=Satin Doll
TTITLE3=Last Night When Were Young 
TTITLE4=Imagination
TTITLE5=Somebody Loves Me
TTITLE6=Come Rain Or Come Shine
TTITLE7=A Certain Smile
TTITLE8=Our Love Is Here To Stay
TTITLE9=Here's That Rainy Day
TTITLE10=How About You
TTITLE11=I Cover The Waterfront
TTITLE12=Love Walked In
TTITLE13=Yesterdays
EXTD=YEAR: 2003
EXTT0=
EXTT1=
EXTT2=
EXTT3=
EXTT4=
EXTT5=
EXTT6=
EXTT7=
EXTT8=
EXTT9=
EXTT10=
EXTT11=
EXTT12=
EXTT13=
PLAYORDER=
